<svg xmlns="http://www.w3.org/2000/svg" viewBox="0 0 760 360" role="img" aria-label="Diagramm: AfA-Verlauf degressiv 5 Prozent vom Restwert vs. linear 2 Prozent">
<g font-family="Segoe UI,Roboto,Arial,sans-serif">
<text x="30" y="34" font-size="17" font-weight="700" fill="#2b2620">AfA im Vergleich: degressiv vs. linear (Beispiel, erste 10 Jahre)</text>
<line x1="80" y1="300" x2="730" y2="300" stroke="#e8e1d3" stroke-width="2"/>
<line x1="80" y1="300" x2="80" y2="80" stroke="#e8e1d3" stroke-width="2"/>
<text x="60" y="114" text-anchor="end" font-size="12" fill="#6b6357">5 %</text>
<text x="60" y="228" text-anchor="end" font-size="12" fill="#6b6357">2 %</text>
<line x1="76" y1="110" x2="730" y2="110" stroke="#e8e1d3" stroke-dasharray="4 4"/>
<line x1="76" y1="224" x2="730" y2="224" stroke="#e8e1d3" stroke-dasharray="4 4"/>
<rect x="90" y="110" width="22" height="190" rx="3" fill="#1a66c9" opacity=".85"/><rect x="116" y="224" width="22" height="76" rx="3" fill="#b07d12" opacity=".9"/><text x="114" y="318" text-anchor="middle" font-size="12" fill="#6b6357">J1</text><rect x="152" y="120" width="22" height="180" rx="3" fill="#1a66c9" opacity=".85"/><rect x="178" y="224" width="22" height="76" rx="3" fill="#b07d12" opacity=".9"/><text x="176" y="318" text-anchor="middle" font-size="12" fill="#6b6357">J2</text><rect x="214" y="129" width="22" height="171" rx="3" fill="#1a66c9" opacity=".85"/><rect x="240" y="224" width="22" height="76" rx="3" fill="#b07d12" opacity=".9"/><text x="238" y="318" text-anchor="middle" font-size="12" fill="#6b6357">J3</text><rect x="276" y="137" width="22" height="163" rx="3" fill="#1a66c9" opacity=".85"/><rect x="302" y="224" width="22" height="76" rx="3" fill="#b07d12" opacity=".9"/><text x="300" y="318" text-anchor="middle" font-size="12" fill="#6b6357">J4</text><rect x="338" y="145" width="22" height="155" rx="3" fill="#1a66c9" opacity=".85"/><rect x="364" y="224" width="22" height="76" rx="3" fill="#b07d12" opacity=".9"/><text x="362" y="318" text-anchor="middle" font-size="12" fill="#6b6357">J5</text><rect x="400" y="153" width="22" height="147" rx="3" fill="#1a66c9" opacity=".85"/><rect x="426" y="224" width="22" height="76" rx="3" fill="#b07d12" opacity=".9"/><text x="424" y="318" text-anchor="middle" font-size="12" fill="#6b6357">J6</text><rect x="462" y="160" width="22" height="140" rx="3" fill="#1a66c9" opacity=".85"/><rect x="488" y="224" width="22" height="76" rx="3" fill="#b07d12" opacity=".9"/><text x="486" y="318" text-anchor="middle" font-size="12" fill="#6b6357">J7</text><rect x="524" y="167" width="22" height="133" rx="3" fill="#1a66c9" opacity=".85"/><rect x="550" y="224" width="22" height="76" rx="3" fill="#b07d12" opacity=".9"/><text x="548" y="318" text-anchor="middle" font-size="12" fill="#6b6357">J8</text><rect x="586" y="174" width="22" height="126" rx="3" fill="#1a66c9" opacity=".85"/><rect x="612" y="224" width="22" height="76" rx="3" fill="#b07d12" opacity=".9"/><text x="610" y="318" text-anchor="middle" font-size="12" fill="#6b6357">J9</text><rect x="648" y="180" width="22" height="120" rx="3" fill="#1a66c9" opacity=".85"/><rect x="674" y="224" width="22" height="76" rx="3" fill="#b07d12" opacity=".9"/><text x="672" y="318" text-anchor="middle" font-size="12" fill="#6b6357">J10</text>
<rect x="90" y="44" width="14" height="14" rx="3" fill="#1a66c9" opacity=".85"/><text x="112" y="56" font-size="13" fill="#6b6357">degressiv: 5 % vom jeweiligen Restwert (Neubau, Baubeginn 10/2023&#8211;09/2029)</text>
<rect x="90" y="66" width="14" height="14" rx="3" fill="#b07d12" opacity=".9"/><text x="112" y="78" font-size="13" fill="#6b6357">linear: konstant 2 % (Bestand) bzw. 3 % (Neubau)</text>
</g>
</svg>